<svg xmlns="http://www.w3.org/2000/svg" width="1320" height="900" viewBox="0 0 1320 900" font-family="'SF Pro Display', 'Segoe UI', system-ui, sans-serif">
  <!-- Background -->
  <rect width="1320" height="900" fill="#1a1a2e"/>

  <!-- Title -->
  <text x="660" y="42" text-anchor="middle" font-size="22" font-weight="700" fill="#e2e8f0" letter-spacing="0.5">Community Garden — Mobile UI</text>
  <text x="660" y="64" text-anchor="middle" font-size="13" fill="#94a3b8">iOS / Android (React Native + Expo)</text>

  <!-- Screen labels -->
  <text x="155" y="98" text-anchor="middle" font-size="13" font-weight="600" fill="#7dd3fc" letter-spacing="0.3">AI Search</text>
  <text x="465" y="98" text-anchor="middle" font-size="13" font-weight="600" fill="#7dd3fc" letter-spacing="0.3">Listing Detail</text>
  <text x="775" y="98" text-anchor="middle" font-size="13" font-weight="600" fill="#7dd3fc" letter-spacing="0.3">Future Order</text>
  <text x="1085" y="98" text-anchor="middle" font-size="13" font-weight="600" fill="#7dd3fc" letter-spacing="0.3">Order Confirmation</text>

  <!-- ============================= PHONE 1: AI Search ============================= -->
  <!-- Phone body -->
  <rect x="50" y="108" width="210" height="430" rx="30" ry="30" fill="#0f172a" stroke="#334155" stroke-width="3"/>
  <!-- Side buttons -->
  <rect x="47" y="195" width="4" height="35" rx="2" fill="#334155"/>
  <rect x="47" y="240" width="4" height="55" rx="2" fill="#334155"/>
  <rect x="259" y="210" width="4" height="50" rx="2" fill="#334155"/>
  <!-- Screen area -->
  <rect x="60" y="118" width="190" height="410" rx="22" ry="22" fill="#ffffff"/>
  <!-- Notch -->
  <rect x="110" y="118" width="90" height="22" rx="0" fill="#0f172a"/>
  <rect x="110" y="118" width="90" height="16" rx="8" fill="#0f172a"/>
  <!-- Camera dot -->
  <circle cx="165" cy="127" r="4" fill="#1e293b"/>
  <!-- Status bar -->
  <text x="73" y="152" font-size="9" fill="#1e293b" font-weight="600">9:41</text>
  <text x="210" y="152" font-size="8" fill="#1e293b">●●● WiFi 🔋</text>

  <!-- Nav bar top -->
  <rect x="60" y="156" width="190" height="36" fill="#f0fdf4"/>
  <text x="155" y="178" text-anchor="middle" font-size="12" font-weight="700" fill="#166534">🌱 Community Garden</text>

  <!-- Hero section -->
  <defs>
    <linearGradient id="heroGrad1" x1="0" y1="0" x2="0" y2="1">
      <stop offset="0%" stop-color="#16a34a"/>
      <stop offset="100%" stop-color="#15803d"/>
    </linearGradient>
  </defs>
  <rect x="60" y="192" width="190" height="72" fill="url(#heroGrad1)"/>
  <text x="155" y="212" text-anchor="middle" font-size="10" font-weight="700" fill="#ffffff">Fresh from your neighborhood</text>
  <text x="155" y="225" text-anchor="middle" font-size="8" fill="#bbf7d0">Ask for anything — AI finds it</text>

  <!-- Search input -->
  <rect x="72" y="232" width="155" height="24" rx="12" fill="#ffffff" stroke="#d1fae5" stroke-width="1.5"/>
  <text x="83" y="248" font-size="8" fill="#9ca3af">Find me some zucchini...</text>
  <rect x="201" y="235" width="18" height="18" rx="9" fill="#16a34a"/>
  <text x="210" y="248" text-anchor="middle" font-size="10" fill="#ffffff">→</text>

  <!-- AI results banner -->
  <rect x="60" y="264" width="190" height="18" fill="#eff6ff"/>
  <text x="155" y="276" text-anchor="middle" font-size="7.5" fill="#1d4ed8">🤖 AI found 6 results · 15 mi of 88001</text>

  <!-- Listing card 1 -->
  <rect x="68" y="286" width="172" height="64" rx="8" fill="#ffffff" stroke="#e2e8f0" stroke-width="1"/>
  <rect x="68" y="286" width="52" height="64" rx="8" fill="#4ade80"/>
  <rect x="120" y="286" width="8" height="64" rx="0" fill="#4ade80"/>
  <text x="94" y="323" text-anchor="middle" font-size="20">🥒</text>
  <rect x="132" y="290" width="48" height="13" rx="6" fill="#dcfce7"/>
  <text x="156" y="300" text-anchor="middle" font-size="7" fill="#166534" font-weight="700">🤖 Best Match</text>
  <text x="132" y="315" font-size="10" font-weight="700" fill="#1e293b">Fresh Zucchini</text>
  <text x="132" y="328" font-size="9" fill="#16a34a" font-weight="600">$3.00 / lb</text>
  <text x="132" y="340" font-size="7.5" fill="#64748b">🌾 Green Valley Farm · 2.3 mi</text>
  <rect x="194" y="336" width="36" height="12" rx="6" fill="#16a34a"/>
  <text x="212" y="345" text-anchor="middle" font-size="7" fill="#ffffff" font-weight="600">+ Cart</text>

  <!-- Listing card 2 -->
  <rect x="68" y="356" width="172" height="60" rx="8" fill="#ffffff" stroke="#e2e8f0" stroke-width="1"/>
  <rect x="68" y="356" width="52" height="60" rx="8" fill="#fb923c"/>
  <rect x="120" y="356" width="8" height="60" rx="0" fill="#fb923c"/>
  <text x="94" y="391" text-anchor="middle" font-size="20">🍊</text>
  <rect x="132" y="360" width="55" height="13" rx="6" fill="#fff7ed"/>
  <text x="159" y="370" text-anchor="middle" font-size="7" fill="#9a3412" font-weight="700">🔔 Matches Demand</text>
  <text x="132" y="385" font-size="10" font-weight="700" fill="#1e293b">Navel Oranges</text>
  <text x="132" y="397" font-size="9" fill="#16a34a" font-weight="600">$2.50 / lb</text>
  <text x="132" y="408" font-size="7.5" fill="#64748b">🌾 Casa Verde · 4.1 mi</text>
  <rect x="194" y="404" width="36" height="12" rx="6" fill="#16a34a"/>
  <text x="212" y="413" text-anchor="middle" font-size="7" fill="#ffffff" font-weight="600">+ Cart</text>

  <!-- Listing card 3 (partial - shows scrollable content) -->
  <rect x="68" y="422" width="172" height="40" rx="8" fill="#ffffff" stroke="#e2e8f0" stroke-width="1"/>
  <rect x="68" y="422" width="52" height="40" rx="8" fill="#facc15"/>
  <rect x="120" y="422" width="8" height="40" rx="0" fill="#facc15"/>
  <text x="94" y="447" text-anchor="middle" font-size="16">🥚</text>
  <text x="132" y="437" font-size="10" font-weight="700" fill="#1e293b">Farm Fresh Eggs</text>
  <text x="132" y="449" font-size="9" fill="#16a34a" font-weight="600">$6.00 / doz</text>
  <!-- Fade overlay suggesting more content -->
  <defs>
    <linearGradient id="fadeDown1" x1="0" y1="0" x2="0" y2="1">
      <stop offset="0%" stop-color="#ffffff" stop-opacity="0"/>
      <stop offset="100%" stop-color="#ffffff" stop-opacity="0.9"/>
    </linearGradient>
  </defs>
  <rect x="60" y="442" width="190" height="30" fill="url(#fadeDown1)"/>

  <!-- Bottom tab bar -->
  <rect x="60" y="492" width="190" height="36" fill="#ffffff" stroke="#e2e8f0" stroke-width="1"/>
  <!-- Active tab indicator -->
  <rect x="60" y="492" width="48" height="2" fill="#16a34a"/>
  <text x="84" y="507" text-anchor="middle" font-size="14">🔍</text>
  <text x="84" y="519" text-anchor="middle" font-size="7" fill="#16a34a" font-weight="600">Discover</text>
  <text x="130" y="507" text-anchor="middle" font-size="14">📋</text>
  <text x="130" y="519" text-anchor="middle" font-size="7" fill="#94a3b8">Orders</text>
  <text x="176" y="507" text-anchor="middle" font-size="14">⏰</text>
  <text x="176" y="519" text-anchor="middle" font-size="7" fill="#94a3b8">Future</text>
  <text x="222" y="507" text-anchor="middle" font-size="14">👤</text>
  <text x="222" y="519" text-anchor="middle" font-size="7" fill="#94a3b8">Profile</text>

  <!-- ============================= PHONE 2: Listing Detail ============================= -->
  <!-- Phone body -->
  <rect x="360" y="108" width="210" height="430" rx="30" ry="30" fill="#0f172a" stroke="#334155" stroke-width="3"/>
  <rect x="357" y="195" width="4" height="35" rx="2" fill="#334155"/>
  <rect x="357" y="240" width="4" height="55" rx="2" fill="#334155"/>
  <rect x="569" y="210" width="4" height="50" rx="2" fill="#334155"/>
  <!-- Screen area -->
  <rect x="370" y="118" width="190" height="410" rx="22" ry="22" fill="#ffffff"/>
  <!-- Notch -->
  <rect x="420" y="118" width="90" height="16" rx="8" fill="#0f172a"/>
  <circle cx="475" cy="127" r="4" fill="#1e293b"/>
  <!-- Status bar -->
  <text x="383" y="152" font-size="9" fill="#1e293b" font-weight="600">9:41</text>
  <text x="520" y="152" font-size="8" fill="#1e293b">●●● WiFi 🔋</text>

  <!-- Back nav bar -->
  <rect x="370" y="156" width="190" height="32" fill="#f8fafc"/>
  <text x="382" y="177" font-size="11" fill="#16a34a">←</text>
  <text x="465" y="177" text-anchor="middle" font-size="11" font-weight="600" fill="#1e293b">Listing Detail</text>
  <text x="548" y="177" font-size="13" fill="#1e293b">♡</text>

  <!-- Product hero image -->
  <rect x="370" y="188" width="190" height="110" fill="#4ade80"/>
  <text x="465" y="253" text-anchor="middle" font-size="52">🥒</text>
  <!-- Photo dots -->
  <circle cx="455" cy="296" r="4" fill="#ffffff" opacity="0.9"/>
  <circle cx="465" cy="296" r="3" fill="#ffffff" opacity="0.5"/>
  <circle cx="475" cy="296" r="3" fill="#ffffff" opacity="0.5"/>

  <!-- Listing info -->
  <rect x="370" y="298" width="190" height="134" fill="#ffffff"/>
  <!-- Best match badge -->
  <rect x="380" y="303" width="55" height="14" rx="7" fill="#dcfce7"/>
  <text x="407" y="313" text-anchor="middle" font-size="7.5" fill="#166534" font-weight="700">🤖 Best Match</text>

  <text x="380" y="332" font-size="14" font-weight="800" fill="#1e293b">Fresh Zucchini</text>
  <text x="540" y="332" text-anchor="end" font-size="14" font-weight="800" fill="#16a34a">$3.00/lb</text>

  <text x="380" y="348" font-size="9" fill="#64748b">🌾 Green Valley Farm</text>
  <text x="540" y="348" text-anchor="end" font-size="9" fill="#64748b">📍 2.3 mi away</text>

  <!-- Divider -->
  <line x1="380" y1="356" x2="550" y2="356" stroke="#f1f5f9" stroke-width="1"/>

  <!-- Stats row -->
  <text x="395" y="372" text-anchor="middle" font-size="9" fill="#64748b">Available</text>
  <text x="395" y="383" text-anchor="middle" font-size="10" font-weight="700" fill="#1e293b">8 lbs</text>
  <text x="465" y="372" text-anchor="middle" font-size="9" fill="#64748b">Category</text>
  <text x="465" y="383" text-anchor="middle" font-size="10" font-weight="700" fill="#1e293b">Vegetable</text>
  <text x="535" y="372" text-anchor="middle" font-size="9" fill="#64748b">Harvest</text>
  <text x="535" y="383" text-anchor="middle" font-size="10" font-weight="700" fill="#1e293b">Today</text>

  <!-- Description -->
  <text x="380" y="400" font-size="8.5" fill="#475569">Freshly harvested this morning. Organically</text>
  <text x="380" y="411" font-size="8.5" fill="#475569">grown, no pesticides. Available for pickup.</text>

  <!-- Quantity selector + Add to cart -->
  <rect x="370" y="432" width="190" height="56" fill="#f8fafc"/>
  <!-- Quantity control -->
  <rect x="380" y="440" width="74" height="28" rx="14" fill="#ffffff" stroke="#e2e8f0" stroke-width="1.5"/>
  <text x="393" y="458" text-anchor="middle" font-size="14" fill="#64748b">−</text>
  <text x="417" y="458" text-anchor="middle" font-size="11" font-weight="700" fill="#1e293b">2 lb</text>
  <text x="441" y="458" text-anchor="middle" font-size="14" fill="#16a34a">+</text>
  <!-- Add to cart button -->
  <rect x="462" y="440" width="88" height="28" rx="14" fill="#16a34a"/>
  <text x="506" y="458" text-anchor="middle" font-size="9.5" font-weight="700" fill="#ffffff">Add to Cart $6.00</text>

  <!-- Bottom tab bar -->
  <rect x="370" y="492" width="190" height="36" fill="#ffffff" stroke="#e2e8f0" stroke-width="1"/>
  <text x="394" y="507" text-anchor="middle" font-size="14">🔍</text>
  <text x="394" y="519" text-anchor="middle" font-size="7" fill="#94a3b8">Discover</text>
  <text x="440" y="507" text-anchor="middle" font-size="14">📋</text>
  <text x="440" y="519" text-anchor="middle" font-size="7" fill="#94a3b8">Orders</text>
  <text x="486" y="507" text-anchor="middle" font-size="14">⏰</text>
  <text x="486" y="519" text-anchor="middle" font-size="7" fill="#94a3b8">Future</text>
  <text x="532" y="507" text-anchor="middle" font-size="14">👤</text>
  <text x="532" y="519" text-anchor="middle" font-size="7" fill="#94a3b8">Profile</text>

  <!-- ============================= PHONE 3: Future Order ============================= -->
  <!-- Phone body -->
  <rect x="670" y="108" width="210" height="430" rx="30" ry="30" fill="#0f172a" stroke="#334155" stroke-width="3"/>
  <rect x="667" y="195" width="4" height="35" rx="2" fill="#334155"/>
  <rect x="667" y="240" width="4" height="55" rx="2" fill="#334155"/>
  <rect x="879" y="210" width="4" height="50" rx="2" fill="#334155"/>
  <!-- Screen -->
  <rect x="680" y="118" width="190" height="410" rx="22" ry="22" fill="#ffffff"/>
  <!-- Notch -->
  <rect x="730" y="118" width="90" height="16" rx="8" fill="#0f172a"/>
  <circle cx="785" cy="127" r="4" fill="#1e293b"/>
  <!-- Status bar -->
  <text x="693" y="152" font-size="9" fill="#1e293b" font-weight="600">9:41</text>
  <text x="830" y="152" font-size="8" fill="#1e293b">●●● WiFi 🔋</text>

  <!-- Nav -->
  <rect x="680" y="156" width="190" height="32" fill="#f8fafc"/>
  <text x="692" y="177" font-size="11" fill="#16a34a">←</text>
  <text x="775" y="177" text-anchor="middle" font-size="11" font-weight="600" fill="#1e293b">Future Order</text>

  <!-- Section header -->
  <rect x="680" y="188" width="190" height="44" fill="#fefce8"/>
  <text x="775" y="206" text-anchor="middle" font-size="10" font-weight="700" fill="#713f12">⏰ Post a Demand Signal</text>
  <text x="775" y="220" text-anchor="middle" font-size="8" fill="#92400e">Tell us what you need — we'll notify you</text>

  <!-- Text input area -->
  <rect x="690" y="238" width="170" height="52" rx="10" fill="#f8fafc" stroke="#e2e8f0" stroke-width="1.5"/>
  <text x="700" y="255" font-size="9" fill="#1e293b">I need 10 oranges in 2 days</text>
  <text x="700" y="268" font-size="9" fill="#1e293b">near Las Cruces, NM</text>
  <!-- blinking cursor -->
  <rect x="700" y="271" width="1.5" height="10" fill="#16a34a"/>
  <!-- char count -->
  <text x="852" y="284" text-anchor="end" font-size="7.5" fill="#94a3b8">42/200</text>

  <!-- Parse button -->
  <rect x="690" y="297" width="170" height="26" rx="13" fill="#16a34a"/>
  <text x="775" y="314" text-anchor="middle" font-size="9.5" font-weight="700" fill="#ffffff">🤖 Parse with AI</text>

  <!-- Divider -->
  <line x1="690" y1="330" x2="860" y2="330" stroke="#e2e8f0" stroke-width="1"/>
  <rect x="730" y="325" width="90" height="10" fill="#ffffff"/>
  <text x="775" y="333" text-anchor="middle" font-size="7.5" fill="#94a3b8">AI parsed your request</text>

  <!-- Parsed intent card -->
  <rect x="690" y="338" width="170" height="98" rx="10" fill="#f0fdf4" stroke="#bbf7d0" stroke-width="1.5"/>
  <text x="700" y="354" font-size="8.5" font-weight="700" fill="#166534">Parsed Intent</text>

  <!-- Row: Product -->
  <text x="700" y="370" font-size="8" fill="#64748b">Product</text>
  <text x="856" y="370" text-anchor="end" font-size="8.5" font-weight="600" fill="#1e293b">Oranges (Navel)</text>
  <!-- Row: Quantity -->
  <text x="700" y="385" font-size="8" fill="#64748b">Quantity</text>
  <text x="856" y="385" text-anchor="end" font-size="8.5" font-weight="600" fill="#1e293b">10 lbs</text>
  <!-- Row: Needed By -->
  <text x="700" y="400" font-size="8" fill="#64748b">Needed by</text>
  <text x="856" y="400" text-anchor="end" font-size="8.5" font-weight="600" fill="#1e293b">Apr 20, 2026</text>
  <!-- Row: Location -->
  <text x="700" y="415" font-size="8" fill="#64748b">Near</text>
  <text x="856" y="415" text-anchor="end" font-size="8.5" font-weight="600" fill="#1e293b">88001 · 15 mi radius</text>
  <!-- Max price -->
  <text x="700" y="430" font-size="8" fill="#64748b">Max price</text>
  <text x="856" y="430" text-anchor="end" font-size="8.5" font-weight="600" fill="#94a3b8">—  (any)</text>

  <!-- Confirm button -->
  <rect x="690" y="442" width="170" height="28" rx="14" fill="#16a34a"/>
  <text x="775" y="460" text-anchor="middle" font-size="10" font-weight="700" fill="#ffffff">✓ Confirm &amp; Post Demand</text>

  <!-- Bottom tab bar -->
  <rect x="680" y="492" width="190" height="36" fill="#ffffff" stroke="#e2e8f0" stroke-width="1"/>
  <rect x="728" y="492" width="48" height="2" fill="#16a34a"/>
  <text x="704" y="507" text-anchor="middle" font-size="14">🔍</text>
  <text x="704" y="519" text-anchor="middle" font-size="7" fill="#94a3b8">Discover</text>
  <text x="750" y="507" text-anchor="middle" font-size="14">📋</text>
  <text x="750" y="519" text-anchor="middle" font-size="7" fill="#94a3b8">Orders</text>
  <text x="796" y="507" text-anchor="middle" font-size="14">⏰</text>
  <text x="796" y="519" text-anchor="middle" font-size="7" fill="#16a34a" font-weight="600">Future</text>
  <text x="842" y="507" text-anchor="middle" font-size="14">👤</text>
  <text x="842" y="519" text-anchor="middle" font-size="7" fill="#94a3b8">Profile</text>

  <!-- ============================= PHONE 4: Order Confirmation ============================= -->
  <!-- Phone body -->
  <rect x="980" y="108" width="210" height="430" rx="30" ry="30" fill="#0f172a" stroke="#334155" stroke-width="3"/>
  <rect x="977" y="195" width="4" height="35" rx="2" fill="#334155"/>
  <rect x="977" y="240" width="4" height="55" rx="2" fill="#334155"/>
  <rect x="1189" y="210" width="4" height="50" rx="2" fill="#334155"/>
  <!-- Screen -->
  <rect x="990" y="118" width="190" height="410" rx="22" ry="22" fill="#ffffff"/>
  <!-- Notch -->
  <rect x="1040" y="118" width="90" height="16" rx="8" fill="#0f172a"/>
  <circle cx="1095" cy="127" r="4" fill="#1e293b"/>
  <!-- Status bar -->
  <text x="1003" y="152" font-size="9" fill="#1e293b" font-weight="600">9:41</text>
  <text x="1140" y="152" font-size="8" fill="#1e293b">●●● WiFi 🔋</text>

  <!-- Nav -->
  <rect x="990" y="156" width="190" height="32" fill="#f8fafc"/>
  <text x="1085" y="177" text-anchor="middle" font-size="11" font-weight="600" fill="#1e293b">Order Confirmed</text>

  <!-- Success hero -->
  <rect x="990" y="188" width="190" height="72" fill="#f0fdf4"/>
  <circle cx="1085" cy="221" r="22" fill="#16a34a"/>
  <text x="1085" y="228" text-anchor="middle" font-size="22" fill="#ffffff">✓</text>
  <text x="1085" y="255" text-anchor="middle" font-size="9" fill="#166534" font-weight="600">Payment Successful</text>

  <!-- Order ID -->
  <text x="1085" y="275" text-anchor="middle" font-size="8" fill="#94a3b8">Order #CGO-2026-00847</text>

  <!-- Items section -->
  <rect x="1000" y="282" width="170" height="120" rx="8" fill="#f8fafc"/>
  <text x="1010" y="296" font-size="9" font-weight="700" fill="#1e293b">Items Ordered</text>

  <!-- Item row 1 -->
  <rect x="1010" y="302" width="24" height="24" rx="4" fill="#4ade80"/>
  <text x="1022" y="319" text-anchor="middle" font-size="12">🥒</text>
  <text x="1040" y="312" font-size="8.5" font-weight="600" fill="#1e293b">Fresh Zucchini</text>
  <text x="1040" y="322" font-size="7.5" fill="#64748b">2 lb × $3.00</text>
  <text x="1162" y="316" text-anchor="end" font-size="9" font-weight="600" fill="#1e293b">$6.00</text>

  <!-- Item row 2 -->
  <rect x="1010" y="330" width="24" height="24" rx="4" fill="#fb923c"/>
  <text x="1022" y="347" text-anchor="middle" font-size="12">🍊</text>
  <text x="1040" y="340" font-size="8.5" font-weight="600" fill="#1e293b">Navel Oranges</text>
  <text x="1040" y="350" font-size="7.5" fill="#64748b">3 lb × $2.50</text>
  <text x="1162" y="344" text-anchor="end" font-size="9" font-weight="600" fill="#1e293b">$7.50</text>

  <!-- Divider -->
  <line x1="1010" y1="361" x2="1162" y2="361" stroke="#e2e8f0" stroke-width="1"/>

  <!-- Subtotal row -->
  <text x="1010" y="374" font-size="8.5" fill="#64748b">Subtotal</text>
  <text x="1162" y="374" text-anchor="end" font-size="8.5" fill="#1e293b">$13.50</text>

  <!-- Platform fee row (highlighted) -->
  <text x="1010" y="388" font-size="8.5" fill="#64748b">Platform fee (7%)</text>
  <text x="1162" y="388" text-anchor="end" font-size="8.5" fill="#16a34a" font-weight="600">$0.94</text>

  <!-- Total row -->
  <text x="1010" y="402" font-size="9.5" font-weight="700" fill="#1e293b">Total charged</text>
  <text x="1162" y="402" text-anchor="end" font-size="10" font-weight="800" fill="#1e293b">$14.44</text>

  <!-- Payment method -->
  <rect x="1000" y="408" width="170" height="22" rx="6" fill="#eff6ff"/>
  <text x="1085" y="422" text-anchor="middle" font-size="8" fill="#1d4ed8">💳 Visa ending in 4242</text>

  <!-- Delivery info -->
  <rect x="1000" y="436" width="170" height="28" rx="8" fill="#f8fafc" stroke="#e2e8f0" stroke-width="1"/>
  <text x="1010" y="448" font-size="8" fill="#64748b">Pickup from producers by</text>
  <text x="1010" y="459" font-size="9" font-weight="700" fill="#1e293b">📅 Apr 19, 2026 · Before 6 PM</text>

  <!-- Action buttons -->
  <rect x="1000" y="470" width="80" height="22" rx="11" fill="#f1f5f9" stroke="#e2e8f0" stroke-width="1"/>
  <text x="1040" y="484" text-anchor="middle" font-size="8.5" fill="#475569">View Orders</text>
  <rect x="1090" y="470" width="80" height="22" rx="11" fill="#16a34a"/>
  <text x="1130" y="484" text-anchor="middle" font-size="8.5" fill="#ffffff" font-weight="600">Shop More</text>

  <!-- Bottom tab bar -->
  <rect x="990" y="492" width="190" height="36" fill="#ffffff" stroke="#e2e8f0" stroke-width="1"/>
  <rect x="1038" y="492" width="48" height="2" fill="#16a34a"/>
  <text x="1014" y="507" text-anchor="middle" font-size="14">🔍</text>
  <text x="1014" y="519" text-anchor="middle" font-size="7" fill="#94a3b8">Discover</text>
  <text x="1062" y="507" text-anchor="middle" font-size="14">📋</text>
  <text x="1062" y="519" text-anchor="middle" font-size="7" fill="#16a34a" font-weight="600">Orders</text>
  <text x="1108" y="507" text-anchor="middle" font-size="14">⏰</text>
  <text x="1108" y="519" text-anchor="middle" font-size="7" fill="#94a3b8">Future</text>
  <text x="1154" y="507" text-anchor="middle" font-size="14">👤</text>
  <text x="1154" y="519" text-anchor="middle" font-size="7" fill="#94a3b8">Profile</text>

  <!-- ============================= FLOW ARROWS ============================= -->
  <!-- Arrow 1→2 -->
  <defs>
    <marker id="arrowhead" markerWidth="8" markerHeight="6" refX="7" refY="3" orient="auto">
      <polygon points="0 0, 8 3, 0 6" fill="#475569"/>
    </marker>
  </defs>
  <line x1="263" y1="323" x2="357" y2="323" stroke="#475569" stroke-width="2" stroke-dasharray="5,4" marker-end="url(#arrowhead)"/>
  <text x="310" y="317" text-anchor="middle" font-size="8" fill="#94a3b8">Tap listing</text>

  <!-- Arrow 2→3 -->
  <line x1="573" y1="340" x2="667" y2="380" stroke="#475569" stroke-width="2" stroke-dasharray="5,4" marker-end="url(#arrowhead)"/>
  <text x="618" y="352" text-anchor="middle" font-size="8" fill="#94a3b8" transform="rotate(-10, 618, 352)">Post demand</text>

  <!-- Arrow 3→4 (via checkout) -->
  <line x1="883" y1="323" x2="977" y2="323" stroke="#475569" stroke-width="2" stroke-dasharray="5,4" marker-end="url(#arrowhead)"/>
  <text x="930" y="317" text-anchor="middle" font-size="8" fill="#94a3b8">Checkout</text>

  <!-- ============================= PUSH NOTIFICATION OVERLAY ============================= -->
  <!-- Notification banner on top of phone 1 -->
  <rect x="62" y="140" width="186" height="38" rx="12" fill="#1e293b" stroke="#334155" stroke-width="1" opacity="0.97"/>
  <rect x="72" y="148" width="22" height="22" rx="5" fill="#16a34a"/>
  <text x="83" y="163" text-anchor="middle" font-size="13">🌱</text>
  <text x="100" y="157" font-size="7.5" font-weight="700" fill="#f8fafc">Community Garden</text>
  <text x="100" y="168" font-size="7" fill="#94a3b8">Casa Verde listed Oranges!</text>
  <text x="238" y="157" text-anchor="end" font-size="7" fill="#64748b">now</text>

  <!-- ============================= LEGEND ============================= -->
  <rect x="50" y="558" width="1220" height="80" rx="12" fill="#0f172a" stroke="#1e293b" stroke-width="1"/>
  <text x="660" y="578" text-anchor="middle" font-size="11" font-weight="700" fill="#94a3b8" letter-spacing="1">KEY FLOWS &amp; FEATURES</text>

  <!-- Legend items row 1 -->
  <rect x="78" y="588" width="10" height="10" rx="2" fill="#16a34a"/>
  <text x="94" y="597" font-size="9" fill="#cbd5e1">AI Natural-Language Search (FR-08)</text>

  <rect x="298" y="588" width="10" height="10" rx="2" fill="#fb923c"/>
  <text x="314" y="597" font-size="9" fill="#cbd5e1">Future Order Demand Matching (FR-11)</text>

  <rect x="538" y="588" width="10" height="10" rx="2" fill="#3b82f6"/>
  <text x="554" y="597" font-size="9" fill="#cbd5e1">Producer Listing CRUD (FR-02)</text>

  <rect x="738" y="588" width="10" height="10" rx="2" fill="#a78bfa"/>
  <text x="754" y="597" font-size="9" fill="#cbd5e1">Stripe Checkout + Platform Fee (FR-04)</text>

  <rect x="998" y="588" width="10" height="10" rx="2" fill="#f59e0b"/>
  <text x="1014" y="597" font-size="9" fill="#cbd5e1">JWT Role Auth (FR-01)</text>

  <!-- Legend row 2 -->
  <text x="78" y="617" font-size="9" fill="#64748b">Stack: React Native (Expo) · Zustand · TanStack Query · TypeScript</text>
  <text x="78" y="629" font-size="9" fill="#64748b">API: Node.js/Express · PostgreSQL · Redis · Claude API · SendGrid · Stripe</text>
  <text x="800" y="617" font-size="9" fill="#64748b">Push notifications via Expo Push + APNs / FCM</text>
  <text x="800" y="629" font-size="9" fill="#64748b">Shared types: @community-garden/types · OpenAPI 3.1 contract-first</text>
</svg>
